<?xml version="1.0" encoding="utf-8"?>
<!-- Svg Vector Icons : http://www.onlinewebfonts.com/icon -->
<!DOCTYPE svg PUBLIC "-//W3C//DTD SVG 1.1//EN" "http://www.w3.org/Graphics/SVG/1.1/DTD/svg11.dtd">
<svg version="1.1" xmlns="http://www.w3.org/2000/svg" xmlns:xlink="http://www.w3.org/1999/xlink" x="0px" y="0px" viewBox="0 0 256 256" enable-background="new 0 0 256 256" xml:space="preserve">
<metadata> Svg Vector Icons : http://www.onlinewebfonts.com/icon </metadata>
<g><g><g><path fill="#000000" d="M83.7,10.9c-4.8,1.7-8.3,5.1-10.1,9.9c-0.8,2.3-0.9,5-0.9,91.6v89.2l1.1,2.8c1.3,3.3,4.8,6.9,8,8.4c1.6,0.7,2.4,1.5,3.1,2.8c1.8,3.5,5.5,5.6,9.8,5.6c1.2,0,6.4-0.5,11.7-1.2c12.2-1.4,27-2.8,40.3-3.7c10.5-0.7,38.8-1.7,39.1-1.4c0.2,0.2,4.2-0.8-49.9,13.7c-52.4,14-50.4,13.6-54.5,11.5c-2-1-4.5-3.7-5.2-5.5c-0.3-0.6-10.7-39.1-23.1-85.6C28.6,57.7,29.8,62.7,31.9,58.6c1.4-2.8,4.2-5.1,7.3-5.9c1.5-0.4,7.9-2.2,14.2-3.9C63.8,46,65,45.6,65.6,44.4c0.6-1.1,0.6-1.3-0.2-2.1c-0.5-0.6-1.2-1-1.7-1c-0.5,0-7,1.7-14.6,3.7c-14.8,4-16.8,4.8-19.6,8.3c-2,2.6-3.3,5.8-3.6,9c-0.2,2.6,1.4,9,22.5,87.7c12.4,46.6,23.1,85.8,23.6,87c1.1,2.6,5.1,6.5,8,7.8c4.3,1.9,6.8,1.8,17.8-1.2c5.4-1.4,32.2-8.6,59.6-16l49.7-13.3h5c4,0,5.6-0.2,7.6-1c3.4-1.2,7.2-4.8,8.9-8.2l1.3-2.6v-90.1V22.2l-1.3-2.8c-2.1-4.5-5.3-7.3-10-8.7c-2.2-0.6-9.5-0.7-67.5-0.7C89.8,10,86,10.1,83.7,10.9z M219.7,16.1c2.5,1.5,4.7,4.2,5.4,6.8c0.3,1.2,0.4,31.9,0.4,90.2l-0.1,88.5l-1,1.9c-1.3,2.4-3.6,4.5-6.2,5.4c-1.8,0.7-7.7,0.7-67.5,0.6l-65.5-0.1l-2.3-1.4c-1.4-0.9-2.8-2.3-3.6-3.6l-1.4-2.3l-0.1-89c-0.1-63.9,0-89.5,0.4-90.8c0.9-3,4.3-6.2,7.8-7.3c0.6-0.2,30.5-0.3,66.4-0.3l65.2,0.1L219.7,16.1z"/><path fill="#000000" d="M90.8,23.5c-0.4,0.6-1.9,4.1-3.4,7.9c-2.1,5.4-2.9,6.9-3.8,7.2C82,39.3,83,40,85.7,40c2.5,0,3.9-0.8,2.1-1.2c-1.1-0.3-1.2-0.8-0.5-2.9c0.5-1.4,0.6-1.4,3-1.4c2.4,0,2.5,0,3.2,1.7c0.6,1.6,0.6,1.8,0,2.3C92,39.5,92.8,40,96.2,40c3.5,0,4.8-0.6,2.9-1.3c-1-0.4-1.6-1.8-4-8.3c-1.6-4.3-3.1-7.9-3.3-7.9C91.6,22.5,91.1,22.9,90.8,23.5z M91.6,30.5c0.4,1.2,0.7,2.4,0.7,2.4c0,0.1-0.8,0.1-1.8,0.1c-1.2,0-1.8-0.2-1.8-0.6c0-1.1,1.6-4.9,1.9-4.6C90.7,28.1,91.2,29.2,91.6,30.5z"/><path fill="#000000" d="M88.7,48.7c-3.3,3.2-4.1,4.5-4.1,6.6c0,2.8,2.8,4.8,5,3.6c1.4-0.7,1.5-0.6,1,1c-0.6,2.2-0.6,2.2,1,2.2c1.2,0,1.3-0.1,1.2-0.9c-0.1-0.5-0.4-1.3-0.6-1.8c-0.3-1.1,0-1.1,1.3-0.4c2.2,1.2,5-0.9,5-3.6c0-2.3-0.6-3.1-4.1-6.4l-3-2.7L88.7,48.7z"/><path fill="#000000" d="M149.3,69c-3.1,4.8-8,9.6-19.3,19.5c-10.4,9-12.6,11.5-15.1,16.4c-3,6.2-4.1,14.9-2.5,21.1c4,15.1,22,20.9,34.3,11l2-1.6l-0.3,1.8c-1.1,6.2-4.1,17.2-5.6,20.2l-0.7,1.3l1.8-0.3c4.2-0.7,9-0.8,12.6-0.3c2.1,0.3,3.9,0.5,4,0.4c0.1-0.1-0.5-1.8-1.2-3.6c-1.6-4-4-13.3-4.4-17l-0.3-2.5l1.6,1.4c4.7,4.3,12.3,6.3,18.8,4.7c5-1.2,10.8-5.3,13.2-9.4c2.4-4.1,3.1-7,3.1-12.9c0-5-0.1-5.9-1.4-9.7c-2.8-8.1-4.3-10-17.2-20.9c-10-8.5-17.6-16.3-19.6-20l-1.4-2.6L149.3,69z"/><path fill="#000000" d="M210.1,162.9c0.1,0.5,0.3,1.3,0.5,1.9c0.3,1,0.2,1.1-0.8,0.7c-3.8-1.2-6.8,2.4-4.9,5.9c0.3,0.6,1.9,2.3,3.5,3.8l3,2.8l3.4-3.3c3.1-3,3.4-3.5,3.4-5.2c0-1-0.1-2.2-0.3-2.6c-0.5-1.2-2.9-2-4.5-1.6l-1.3,0.4l0.3-1.8c0.3-1.8,0.3-1.8-1.2-1.8C210.2,162.2,209.9,162.3,210.1,162.9z"/><path fill="#000000" d="M203.8,186c1.2,1,2,2.8,4.1,8.6c1.9,5.2,2.8,7.2,3.3,7.1c0.4-0.1,2-3.5,3.7-7.7c2.4-5.8,3.3-7.7,4.1-8.1c1.8-0.8,1.1-1.2-2-1.2c-1.9,0-2.9,0.2-2.7,0.5c0.1,0.2,0.6,0.5,1,0.5c0.8,0,0.8,1.2,0.1,3.2c-0.5,1.3-0.6,1.4-3,1.4H210l-0.7-2c-0.7-2-0.7-2.1,0.3-2.8c0.9-0.6,0.7-0.7-3.1-0.7l-4.1,0L203.8,186z M213.5,194.2c-0.5,1.4-1.1,2.4-1.2,2.2c-0.2-0.2-0.6-1.3-1.1-2.6l-0.7-2.2h2h2L213.5,194.2z"/><path fill="#000000" d="M45.3,59.4c-0.9,0.2-2.4,0.6-3.3,0.9c-2.1,0.5-2.3,1.2-0.5,1.4c1.2,0.1,1.3,0.4,3,6.6c2,7.6,2.3,9.9,1.1,11.2c-0.6,0.7-0.6,1-0.2,1.3c0.9,0.5,3.5-2.7,3.9-4.7c0.3-1.3,0-3.3-1.4-8.4c-1.5-6-1.6-6.7-1-7.4C48.2,58.8,47.9,58.7,45.3,59.4z"/><path fill="#000000" d="M49.5,82.8c0,0.2-0.9,1.8-2.1,3.6c-2.5,3.9-2.8,6.4-0.9,8.3c1.3,1.3,3.9,1.6,4.8,0.5c0.9-1.1,1.5-0.3,1.2,1.5c-0.2,1.3-0.1,1.6,0.4,1.3c0.4-0.1,1.2-0.3,1.7-0.3c0.9,0,0.9,0,0-1.6c-0.6-0.8-1-1.6-1-1.8c0-0.1,0.7-0.2,1.7-0.2c1.9,0,3.9-1.8,3.9-3.5c0-2.4-1.4-4-5.2-6C49.2,82.1,49.5,82.3,49.5,82.8z"/></g></g></g>
</svg>